<svg width="116" height="32" viewBox="0 0 116 32" fill="none" xmlns="http://www.w3.org/2000/svg">
<g clip-path="url(#clip0_1_8609)">
<path d="M11.5907 22.3258L8.65485 10.6777L5.61357 22.3258H11.5907ZM14.1983 31.9241L12.4824 25.8116H4.71865L3.00044 31.9241H0.046875L7.26257 4.55957H9.94009L17.1566 31.9241H14.199H14.1983Z" fill="#2F308C"/>
<path d="M17.1562 4.55957H20.109V16.8529L27.4269 4.55957H31.1032L23.7571 16.7884L32.7562 31.9241H29.1451L21.9737 19.817L20.109 22.9065V31.9241H17.1562V4.55957Z" fill="#2F308C"/>
<path d="M35.2712 7.38281H38.2256L35.734 31.9239H32.7578L35.2712 7.38281Z" fill="#2F308C"/>
<path d="M38.9984 0L38.2266 7.38305H41.3355L42.1105 0H38.9984Z" fill="#2F308C"/>
<path d="M45.8432 27.4577C46.4885 26.7953 46.7203 25.8707 46.7453 24.6846V4.5625H49.6722V24.6846C49.6489 26.8713 48.9987 28.5829 47.8519 29.8239C46.7058 31.067 45.0882 31.9242 42.863 31.9242C41.4337 31.9242 40.1622 31.3825 39.1859 30.7772C38.2089 30.169 37.4258 29.2994 36.8359 28.1647L39.4032 26.5748C41.2212 29.3792 44.6995 28.5382 45.8432 27.4586" fill="#2F308C"/>
<path d="M72.8026 20.2306C70.9733 20.2306 69.4844 18.4734 69.4844 16.3124V14.7671H71.4755V16.3124C71.4755 17.1761 72.071 17.8794 72.8026 17.8794C73.5341 17.8794 74.1296 17.1761 74.1296 16.3124V15.2803C74.1296 14.2444 73.1204 13.7351 72.5193 13.5241C70.6192 12.8579 69.4844 11.3593 69.4844 9.51468V8.48263C69.4844 6.32255 70.9733 4.56445 72.8026 4.56445C74.6318 4.56445 76.1206 6.32255 76.1206 8.48263V10.0279H74.1296V8.48263C74.1296 7.61879 73.5341 6.91555 72.8026 6.91555C72.071 6.91555 71.4755 7.61879 71.4755 8.48263V9.51468C71.4755 10.5505 72.4846 11.0599 73.0858 11.2699C74.986 11.937 76.1206 13.4357 76.1206 15.2794V16.3114C76.1206 18.4714 74.6318 20.2296 72.8026 20.2296V20.2306Z" fill="#211F20"/>
<path d="M80.7635 20.2324C78.9342 20.2324 77.4453 18.4752 77.4453 16.3142V8.48263C77.4453 6.32255 78.9342 4.56445 80.7635 4.56445C82.5928 4.56445 84.0816 6.32255 84.0816 8.48263V16.3142C84.0816 18.4744 82.5928 20.2324 80.7635 20.2324ZM80.7635 6.9165C80.032 6.9165 79.4364 7.61974 79.4364 8.48359V16.3152C79.4364 17.1791 80.032 17.8823 80.7635 17.8823C81.495 17.8823 82.0906 17.1791 82.0906 16.3152V8.48359C82.0906 7.61974 81.495 6.9165 80.7635 6.9165Z" fill="#211F20"/>
<path d="M88.7322 20.2324C86.903 20.2324 85.4141 18.4754 85.4141 16.3143V4.56641H87.4052V16.3152C87.4052 17.1791 88.0007 17.8823 88.7322 17.8823C89.4638 17.8823 90.0593 17.1791 90.0593 16.3152V4.56641H92.0503V16.3152C92.0503 18.4754 90.5615 20.2334 88.7322 20.2334V20.2324Z" fill="#211F20"/>
<path d="M58.7381 20.2352H60.8539L58.7389 12.9016C59.6185 12.1965 60.1988 11.0056 60.1988 9.65814V8.48449C60.1988 6.3244 58.71 4.56631 56.8807 4.56631H55.5608V4.5625H53.5625V4.56631V6.91741V11.2252V13.5763V20.2352H55.5608V13.5763H56.8179L58.7381 20.2352ZM55.5608 6.91741H56.8807C57.6122 6.91741 58.2078 7.62064 58.2078 8.48449V9.65814C58.2078 10.522 57.6122 11.2252 56.8807 11.2252H55.5608V6.91741Z" fill="#211F20"/>
<path d="M98.5506 20.2352H100.666L98.5513 12.9016C99.4309 12.1965 100.011 11.0056 100.011 9.65814V8.48449C100.011 6.3244 98.5224 4.56631 96.6931 4.56631H95.3733V4.5625H93.375V4.56631V6.91741V11.2252V13.5763V20.2352H95.3733V13.5763H96.6303L98.5506 20.2352ZM95.3733 6.91741H96.6931C97.4247 6.91741 98.0202 7.62064 98.0202 8.48449V9.65814C98.0202 10.522 97.4247 11.2252 96.6931 11.2252H95.3733V6.91741Z" fill="#211F20"/>
<path d="M68.1597 6.92216V4.5625H63.5217H61.5234V6.92216V11.2204V13.5801V17.8784V20.2352V20.238H68.1597V17.8784H63.5217V13.5801H68.1597V11.2204H63.5217V6.92216H68.1597Z" fill="#211F20"/>
<path d="M115.942 6.92216V4.5625H111.304H109.305V6.92216V11.2204V13.5801V17.8784V20.2352V20.238H115.942V17.8784H111.304V13.5801H115.942V11.2204H111.304V6.92216H115.942Z" fill="#211F20"/>
<path d="M104.662 20.2324C102.833 20.2324 101.344 18.4752 101.344 16.3142V8.48263C101.344 6.32256 102.833 4.56445 104.662 4.56445C106.491 4.56445 107.98 6.32256 107.98 8.48263V10.0469H105.989V8.48263C105.989 7.61879 105.393 6.91555 104.662 6.91555C103.93 6.91555 103.335 7.61879 103.335 8.48263V16.3142C103.335 17.1781 103.93 17.8813 104.662 17.8813C105.393 17.8813 105.989 17.1781 105.989 16.3142V14.749H107.98V16.3142C107.98 18.4744 106.491 20.2324 104.662 20.2324Z" fill="#211F20"/>
<path d="M102.53 23.2547C102.537 23.2784 102.54 23.2994 102.54 23.3193V24.1072C102.479 24.4074 102.414 24.9025 102.346 25.5934C102.333 25.7093 102.278 26.0439 102.179 26.596C102.185 26.6531 102.188 26.7395 102.19 26.8555C102.158 27.0559 102.121 27.3591 102.08 27.7649C102.076 27.916 102.074 28.0548 102.074 28.1792C102.074 28.5233 102.087 28.7656 102.112 28.9062C102.099 28.9385 102.089 28.9822 102.08 29.0365C102.121 29.101 102.142 29.1828 102.142 29.2797C102.142 29.4014 102.118 29.5106 102.072 29.6066C102.025 29.7026 101.969 29.7511 101.905 29.7511C101.873 29.7511 101.819 29.714 101.744 29.6389C101.668 29.5648 101.62 29.4974 101.599 29.4375C101.594 29.4108 101.582 29.236 101.565 28.9139C101.536 28.8597 101.522 28.8245 101.522 28.8083V27.8257L101.907 24.0739C101.937 23.8952 101.953 23.7868 101.955 23.7489V23.7451C101.955 23.7156 101.949 23.6395 101.936 23.5179L101.918 23.3193L101.939 23.2547H99.5543C99.5768 23.286 99.5969 23.3231 99.6122 23.3649C99.646 23.4561 99.6315 23.5369 99.6154 23.7697C99.584 23.8876 99.4729 25.4404 99.4569 25.8177C99.576 25.87 99.6452 25.8947 99.6637 25.8947L99.79 25.8624C99.8979 25.8348 99.9744 25.8205 100.02 25.8187C100.135 25.8149 100.356 25.8233 100.439 25.8528L100.563 25.8966C100.756 25.8899 100.855 25.9602 100.858 26.1056C100.86 26.1988 100.839 26.2691 100.794 26.3185C100.749 26.3679 100.662 26.4145 100.534 26.4582C100.424 26.499 100.354 26.5409 100.322 26.5846C100.189 26.6179 100.118 26.6349 100.111 26.6349C99.9808 26.6387 99.8657 26.5856 99.6114 26.6549C99.5318 26.673 99.4851 26.7205 99.4706 26.7946C99.4424 26.9467 99.415 27.1833 99.386 27.5055C99.3892 27.7782 99.3909 28.8768 99.349 29.4802C99.2984 29.6066 99.1953 29.7635 99.1961 29.772C99.0231 29.7615 98.9153 29.7197 98.8727 29.6475C98.8525 29.6114 98.8412 29.5106 98.8372 29.3463C98.8324 29.1447 98.8332 27.8685 98.8823 26.8383C98.8412 26.7813 98.8035 26.7537 98.7672 26.7547C98.7624 26.7547 98.7575 26.7547 98.7527 26.7547C98.7076 26.7671 98.6715 26.7737 98.6448 26.7737C98.6271 26.7737 98.6143 26.7718 98.6046 26.7671C98.4453 26.7595 98.2884 26.7537 98.1322 26.7509C97.9359 26.7014 97.8345 26.5409 97.828 26.2672C97.8256 26.174 97.8449 26.0904 97.886 26.0144C97.927 25.9384 97.9736 25.9004 98.0268 25.8985C98.0316 25.8985 98.0759 25.9042 98.1604 25.9155C98.2449 25.9269 98.29 25.9337 98.2964 25.9327C98.2996 25.9327 98.3358 25.9261 98.4059 25.9127C98.4758 25.9004 98.5129 25.8937 98.5177 25.8928C98.5225 25.8928 98.5427 25.9042 98.5772 25.9269C98.5933 25.9365 98.6055 25.9431 98.6143 25.9488C98.6191 25.9469 98.6304 25.9441 98.6505 25.9413C98.7318 25.9279 98.7745 25.9213 98.7777 25.9213C98.8582 25.9185 98.9065 25.8491 98.9233 25.7131C98.9378 25.6039 99.007 23.5493 99.0778 23.3241C99.0867 23.2974 99.0972 23.2736 99.1093 23.2518H88.0435V23.9076C87.983 24.2078 87.9187 24.703 87.8511 25.3939C87.839 25.5097 87.7834 25.8443 87.6853 26.3964C87.6909 26.4535 87.6942 26.5399 87.6958 26.6559C87.6636 26.8563 87.6273 27.1595 87.5863 27.5653C87.5822 27.7164 87.5806 27.8552 87.5806 27.9797C87.5806 28.3237 87.5928 28.566 87.6177 28.7067C87.6056 28.739 87.5944 28.7827 87.5855 28.8369C87.6266 28.9015 87.6475 28.9832 87.6475 29.0802C87.6475 29.2018 87.6241 29.3111 87.5774 29.407C87.5307 29.503 87.476 29.5515 87.4117 29.5515C87.3795 29.5515 87.3264 29.5144 87.2515 29.4393C87.1767 29.3653 87.1284 29.2978 87.1075 29.2379C87.1018 29.2113 87.0906 29.0365 87.0729 28.7143C87.0439 28.6601 87.0303 28.6249 87.0303 28.6088V27.6262L87.4125 23.8743C87.4431 23.6956 87.4592 23.5872 87.4608 23.5493V23.5455C87.4608 23.516 87.4543 23.4399 87.4423 23.3183L87.4358 23.2509H78.2283C78.2275 24.2563 78.217 24.9101 78.1977 25.2105C78.2081 25.3995 78.213 25.6352 78.213 25.9165C78.213 26.271 78.2058 26.692 78.1913 27.1795C78.1575 27.2689 78.1092 27.4057 78.0472 27.5901L77.9627 27.553H77.9651C77.9651 27.553 77.8267 27.5274 77.5498 27.4837L77.1346 27.419C76.9567 27.419 76.721 27.4675 76.4264 27.5653C76.1052 27.6708 75.921 27.7801 75.8743 27.8941C75.8695 27.8999 75.8276 27.9302 75.7479 27.9873C75.6683 28.049 75.628 28.1279 75.628 28.2229C75.628 28.2582 75.6522 28.3247 75.7012 28.4215C75.7504 28.5167 75.7938 28.5841 75.8324 28.6249C75.9628 28.758 76.1117 28.8235 76.2807 28.8235C76.374 28.8235 76.6646 28.7542 77.1531 28.6163L77.8855 28.4055H77.9458C77.9635 28.4055 77.9724 28.433 77.9724 28.4862C77.9724 28.5394 77.9554 28.6193 77.9209 28.7219C77.8871 28.8217 77.854 28.8862 77.8234 28.9129C77.7526 28.9756 77.5015 29.1077 77.071 29.3111C76.7371 29.4679 76.494 29.5467 76.3434 29.5467C76.3314 29.5497 76.3096 29.5525 76.2767 29.5553C76.2413 29.5553 76.1857 29.5581 76.1101 29.5639L75.8662 29.5762L75.76 29.4907C75.723 29.4878 75.6667 29.4613 75.5918 29.409C75.4864 29.2712 75.4059 29.1257 75.3496 28.9746C75.3109 28.8692 75.2715 28.7095 75.2297 28.4957C75.1943 28.3037 75.1766 28.1802 75.1766 28.126C75.1766 27.9911 75.22 27.8286 75.3077 27.6386C75.4494 27.324 75.7109 27.0968 76.0916 26.9561C76.1149 26.9343 76.1431 26.9078 76.176 26.8745C76.3298 26.8336 76.4899 26.7813 76.6557 26.7158C76.7709 26.6673 76.9438 26.6425 77.1749 26.6425C77.5635 26.6425 77.776 26.6387 77.8114 26.6302C77.8218 26.1189 77.8501 25.5031 77.8959 24.7827C77.8733 24.6669 77.8613 24.4901 77.8581 24.2544C77.8637 24.2107 77.8669 24.1014 77.8669 23.9256C77.8669 23.8144 77.8653 23.6776 77.8621 23.516V23.3696C77.8621 23.3279 77.8621 23.288 77.8621 23.2499H58.128C58.1505 23.2812 58.1706 23.3183 58.186 23.3602C58.2198 23.4514 58.2053 23.5321 58.1892 23.765C58.1577 23.8828 58.0467 25.4357 58.0306 25.8129C58.1497 25.8652 58.2189 25.8899 58.2375 25.8899L58.3638 25.8576C58.4716 25.8301 58.5481 25.8157 58.5939 25.8139C58.709 25.8101 58.9295 25.8187 59.0124 25.8481L59.1364 25.8918C59.3295 25.8852 59.4285 25.9555 59.4317 26.1009C59.4342 26.194 59.4124 26.2643 59.3673 26.3138C59.3222 26.3632 59.2353 26.4098 59.1074 26.4535C58.998 26.4944 58.9279 26.5361 58.8957 26.5798C58.763 26.6131 58.6921 26.6302 58.6848 26.6302C58.5546 26.634 58.4394 26.5808 58.1851 26.6501C58.1055 26.6683 58.0588 26.7158 58.0443 26.7899C58.0161 26.9419 57.9887 27.1785 57.9598 27.5007C57.963 27.7735 57.9646 28.872 57.9227 29.4755C57.8721 29.6018 57.7691 29.7587 57.7698 29.7673C57.5968 29.7567 57.489 29.715 57.4463 29.6427C57.4262 29.6066 57.415 29.5059 57.4109 29.3415C57.406 29.1401 57.4069 27.8637 57.4559 26.8336C57.415 26.7766 57.3771 26.749 57.3409 26.7499C57.3361 26.7499 57.3313 26.7499 57.3264 26.7499C57.2814 26.7623 57.2451 26.7689 57.2186 26.7689C57.2009 26.7689 57.188 26.7671 57.1783 26.7623C57.019 26.7547 56.8621 26.749 56.706 26.7461C56.5096 26.6968 56.4082 26.5361 56.4018 26.2624C56.3993 26.1693 56.4186 26.0856 56.4597 26.0097C56.5007 25.9337 56.5474 25.8956 56.6005 25.8937C56.6053 25.8937 56.6496 25.8994 56.7341 25.9108C56.8186 25.9223 56.8637 25.9289 56.8701 25.9279C56.8734 25.9279 56.9095 25.9213 56.9795 25.908C57.0496 25.8956 57.0866 25.889 57.0914 25.888C57.0962 25.888 57.1163 25.8994 57.151 25.9223C57.1671 25.9317 57.1791 25.9384 57.188 25.9441C57.1928 25.9422 57.2041 25.9393 57.2242 25.9365C57.3055 25.9231 57.3481 25.9165 57.3513 25.9165C57.4318 25.9137 57.4801 25.8443 57.497 25.7084C57.5115 25.5991 57.5807 23.5445 57.6516 23.3193C57.6604 23.2927 57.6709 23.269 57.6829 23.2471H53.5624V31.9159H115.943V23.2471H102.534L102.53 23.2547ZM62.0311 28.4748C61.941 28.6724 61.7696 28.8892 61.5162 29.1248C61.3375 29.2902 61.137 29.4204 60.9149 29.5144C60.8586 29.5391 60.7942 29.5677 60.7218 29.6C60.5367 29.6 60.3283 29.486 60.0957 29.2588C59.8357 29.007 59.6869 28.7143 59.6499 28.3817C59.6442 28.3494 59.6313 28.2819 59.612 28.1783C59.5871 28.0538 59.5742 27.9835 59.5742 27.9673C59.5742 27.916 59.5911 27.7887 59.6249 27.5853C59.6587 27.3819 59.6869 27.2479 59.7094 27.1833C59.7375 27.0911 59.806 26.999 59.9154 26.9078L60.1327 26.7205C60.2864 26.558 60.4674 26.3993 60.6767 26.2453L60.8457 26.2253C60.8666 26.2064 60.8948 26.1808 60.9303 26.1484C60.9391 26.1484 60.9873 26.1399 61.0743 26.1237C61.1612 26.1075 61.2079 26.099 61.2143 26.099C61.6537 26.099 61.9378 26.4411 62.0665 27.1263C62.1302 27.4589 62.1615 27.6461 62.1615 27.6869C62.1615 28.0149 62.1181 28.2771 62.0304 28.4748H62.0311ZM67.35 26.615C67.3363 26.672 67.3122 26.7481 67.2768 26.8421C67.2292 26.9068 67.1713 27.0028 67.1037 27.1301C67.0844 27.2032 67.0466 27.3126 66.9903 27.4589C66.9444 27.5264 66.8913 27.6128 66.8302 27.7183C66.781 27.8542 66.7368 27.9759 66.6973 28.0842C66.6644 28.165 66.5549 28.3817 66.3666 28.7343C66.1388 29.1562 65.9932 29.3681 65.9295 29.3681C65.7952 29.3681 65.5537 28.9623 65.2061 28.1498L65.0242 27.7278C65.0097 27.7278 64.9324 27.8466 64.7932 28.0851C64.6153 28.3855 64.5035 28.568 64.456 28.6335C64.0729 29.1638 63.8516 29.4299 63.7921 29.4299C63.7035 29.4299 63.6311 29.3728 63.5772 29.2588C63.4782 29.0555 63.376 28.5413 63.2705 27.7155C63.1836 27.0417 63.1394 26.6683 63.1394 26.595C63.1394 26.5656 63.1756 26.4459 63.248 26.2377C63.2923 26.2054 63.3204 26.1892 63.3326 26.1892C63.3735 26.1892 63.4251 26.2491 63.4855 26.3679C63.5458 26.4868 63.5804 26.5941 63.5876 26.6882C63.5876 26.7367 63.5917 26.8126 63.5989 26.9154C63.652 27.189 63.689 27.4104 63.71 27.5815C63.7132 27.7222 63.7486 27.936 63.8162 28.2229H63.8717C63.9562 28.2229 64.1453 27.9606 64.4399 27.4352L64.9678 26.4896C64.9944 26.4439 65.0379 26.4202 65.0991 26.4202C65.198 26.4202 65.2898 26.5856 65.3743 26.9154C65.4322 27.1377 65.47 27.2717 65.4893 27.3173C65.5142 27.4009 65.5641 27.5625 65.6382 27.8011C65.7267 28.0823 65.7984 28.2229 65.8531 28.2229C65.8941 28.2229 66.006 28.05 66.1879 27.7031C66.2466 27.5891 66.3602 27.3743 66.5276 27.0579C66.5927 26.9362 66.8663 26.5219 67.3484 25.8157C67.3854 25.8101 67.4522 25.7826 67.5479 25.7303C67.5955 25.8794 67.6188 26.0106 67.6188 26.1237C67.6188 26.2367 67.5286 26.3954 67.3484 26.615H67.35ZM70.5989 29.3633C70.5619 29.4479 70.5192 29.4898 70.4725 29.4898C70.405 29.4698 70.1997 29.2579 69.8771 28.9804C69.692 28.8227 69.6115 28.6278 69.5938 28.6163C69.5213 28.6163 69.4078 28.8387 69.2758 28.9339C69.1004 29.0602 68.999 29.1315 68.9716 29.1485C68.8557 29.2104 68.7398 29.2407 68.6256 29.2407C68.4799 29.2407 68.3012 29.083 68.0896 28.7694C68.0172 28.6012 67.9802 28.451 67.9802 28.3189C67.9802 28.1422 68.0156 27.9065 68.0864 27.611C68.1017 27.5406 68.1894 27.3895 68.2739 27.325L68.4397 26.9485C68.8139 26.578 69.1157 26.3698 69.4264 26.3698C69.5149 26.3698 69.6299 26.4116 69.7724 26.4962C69.8143 26.5219 69.8649 26.6188 69.9261 26.787C69.9889 26.9553 70.1539 27.093 70.1539 27.1747C70.1539 27.3154 70.1587 27.6348 70.0275 27.8286C69.8239 27.5482 69.6131 27.2346 69.3668 27.2375C69.2388 27.2394 69.1068 27.2897 68.9716 27.3933C68.8018 27.5226 68.665 28.0253 68.5629 28.1792C68.5749 28.2638 68.6618 28.3921 68.7729 28.3921C68.764 28.3921 68.9281 28.3085 69.1326 28.1925C69.4014 28.0396 69.5728 27.8304 69.7032 27.86C69.8521 27.8931 69.8738 27.9778 70.096 28.279C70.3349 28.605 70.4895 28.871 70.5916 28.9557C70.6335 29.0146 70.6537 29.0583 70.6537 29.0858C70.6537 29.1866 70.6351 29.2797 70.5973 29.3643L70.5989 29.3633ZM74.4691 27.2641L74.4289 27.1947C74.3991 27.2413 74.3718 27.2641 74.3468 27.2641C74.3323 27.2641 74.1625 27.2365 73.839 27.1823L73.3312 27.0968C72.8886 27.0968 72.5779 27.3591 72.3992 27.8847C72.3549 28.0149 72.3139 28.242 72.2769 28.567C72.2664 28.5832 72.2495 28.6145 72.2261 28.6601C72.2261 28.8416 72.2077 29.084 72.1707 29.3871C72.1055 29.4337 72.0379 29.4565 71.9662 29.4565C71.8053 29.4565 71.724 29.2721 71.724 28.9043C71.7289 28.8473 71.7393 28.6563 71.757 28.3313C71.7779 27.9522 71.7795 27.3392 71.7884 27.1472C71.8407 26.7034 71.9035 26.6615 71.9695 26.6615C72.1192 26.6483 72.1457 27.0597 72.1562 27.0597C72.161 27.0597 72.2181 26.9799 72.3292 26.8203C72.4459 26.7044 72.5747 26.5846 72.7155 26.4629C72.8515 26.3441 73.0116 26.2843 73.1951 26.2843C73.2483 26.2843 73.6419 26.3984 74.3757 26.6255C74.3806 26.6387 74.3927 26.6635 74.4136 26.6986L74.6445 26.7471C74.6445 26.9286 74.6526 27.0303 74.6687 27.0521C74.6639 27.0579 74.5979 27.1282 74.4691 27.2631V27.2641ZM80.1807 27.228C80.2298 27.2413 80.3328 27.2907 80.489 27.3743C80.5276 27.4019 80.6081 27.4541 80.7312 27.533L80.7641 27.553C80.7875 27.5663 80.8591 27.6204 80.979 27.7155C81.0531 27.7725 81.1191 27.8675 81.177 27.9997C81.2003 28.048 81.2205 28.1488 81.2366 28.2999C81.2366 28.3057 81.2454 28.3351 81.264 28.3893C81.2824 28.4434 81.2921 28.4776 81.2921 28.4909C81.2921 28.5375 81.2631 28.6012 81.2051 28.6838C81.1472 28.7666 81.0909 28.8227 81.037 28.8521C80.9363 28.9091 80.7424 29.0184 80.4559 29.1808C80.13 29.3624 79.8877 29.4527 79.7284 29.4527C79.7235 29.4527 79.693 29.4423 79.635 29.4204C79.5771 29.3986 79.5473 29.388 79.5441 29.388C79.5377 29.388 79.4837 29.4099 79.3799 29.4527C79.3566 29.4527 79.3244 29.4014 79.285 29.2988C79.2439 29.2008 79.223 29.1267 79.223 29.0754C79.223 29.0592 79.2455 28.9956 79.2914 28.8844L79.9723 28.6525C80.2636 28.5546 80.4624 28.4482 80.5695 28.3313C80.5695 28.3151 80.5678 28.2989 80.5654 28.2828C80.5147 28.2125 80.3554 28.0757 80.0857 27.8732C79.8033 27.6594 79.6407 27.5292 79.5972 27.4837C79.5441 27.4513 79.4596 27.3657 79.3445 27.228C79.3123 27.1709 79.2954 27.0531 79.2954 26.8745C79.2954 26.8878 79.2938 26.8944 79.2906 26.8944C79.2873 26.8944 79.2825 26.8716 79.2753 26.825C79.2721 26.8088 79.2705 26.7927 79.2705 26.7766C79.2705 26.6625 79.3413 26.5561 79.4837 26.4563C79.6536 26.3347 79.9079 26.2207 80.2451 26.1133C80.5822 26.0068 80.8599 25.9526 81.0772 25.9526C81.1368 25.9526 81.1746 25.9706 81.1923 26.0059C81.2808 26.1846 81.3259 26.3147 81.3259 26.3954C81.3259 26.5495 81.2969 26.6511 81.2389 26.6996C81.1883 26.7243 80.9653 26.7756 80.5686 26.8535C80.4929 26.9106 80.4511 26.9391 80.4423 26.9391C80.4375 26.9391 80.4253 26.9334 80.4044 26.9229C80.3811 26.9124 80.3666 26.9068 80.3626 26.9068C80.2813 26.9068 80.1864 26.9553 80.0785 27.0531C80.0994 27.1234 80.1332 27.1814 80.1807 27.228ZM89.3802 28.9253C89.3802 28.9737 89.3584 29.1201 89.3166 29.3633L89.2418 29.388C89.2418 29.388 89.2361 29.3918 89.2305 29.3918C89.1919 29.3918 89.1082 29.3586 88.9794 29.2902C88.981 29.2826 88.9826 29.2731 88.9826 29.2617C88.9826 29.2046 88.9617 29.1305 88.9191 29.0383C88.8538 28.9006 88.8168 28.8112 88.8096 28.7704C88.808 28.7628 88.8064 28.7447 88.8064 28.7181C88.8064 28.6345 88.8145 28.4662 88.8297 28.2144C88.8603 27.7031 88.9046 27.2432 88.9626 26.8336C89.0148 26.7357 89.0792 26.6872 89.1556 26.6872C89.2402 26.6872 89.3029 26.7775 89.3432 26.9591C89.3488 26.9913 89.3616 27.6442 89.3809 28.9157V28.9243L89.3802 28.9253ZM89.3705 25.9431C89.1355 25.8671 89.018 25.755 89.018 25.6057C89.018 25.4566 89.0656 25.2969 89.1604 25.1107C89.2103 25.1049 89.3133 25.0907 89.4703 25.066C89.5435 25.2418 89.5805 25.4101 89.5805 25.5696C89.5805 25.6371 89.5106 25.7616 89.3705 25.9431ZM94.8149 29.7777C94.7593 29.791 94.7296 29.7976 94.7248 29.7976C94.6652 29.7976 94.5992 29.7206 94.5252 29.5657C94.5268 29.5573 94.5275 29.5497 94.5275 29.5411C94.5275 29.5059 94.522 29.4583 94.5098 29.3986C94.4358 29.1657 94.3939 28.6525 94.3835 27.859C94.3746 27.8342 94.3601 27.8048 94.3392 27.7697C94.1557 27.7829 93.9184 27.9987 93.627 28.4149L92.939 29.389C92.8987 29.4461 92.8376 29.4745 92.7546 29.4745C92.5671 29.4745 92.4657 29.3471 92.4505 29.0934C92.4489 29.083 92.448 29.065 92.448 29.0403C92.448 28.9585 92.4529 28.795 92.4609 28.5489C92.473 28.2372 92.4786 27.974 92.4786 27.7573C92.4786 27.5244 92.4713 27.3288 92.4561 27.1691C92.44 27.1092 92.4119 27.0797 92.3716 27.0797C92.3048 27.0797 92.176 27.2204 91.9853 27.5017C91.9265 27.5853 91.8163 27.7535 91.6545 28.0053C91.5998 28.1033 91.4944 28.2895 91.339 28.566C91.1419 28.9101 91.001 29.082 90.9149 29.082C90.8618 29.082 90.803 29.0022 90.7395 28.8425C90.6847 28.7019 90.6574 28.6125 90.6574 28.5746C90.6574 28.3874 90.6815 28.0909 90.7307 27.6851C90.7958 27.1519 90.8715 26.8849 90.9568 26.8849C91.0421 26.8849 91.1024 26.9581 91.1451 27.1044L91.2472 27.4456C91.3865 27.2584 91.5523 27.0408 91.7446 26.7918C92.0553 26.3936 92.2806 26.195 92.4215 26.195C92.5221 26.195 92.6339 26.3261 92.7562 26.5884C92.8553 26.8022 92.9084 26.9391 92.914 26.999C92.9454 27.3182 92.9606 27.6233 92.9606 27.9122V28.0424C92.9711 28.0558 92.984 28.0633 93.0001 28.0633C93.0548 28.0633 93.1321 27.9816 93.2311 27.82C93.2931 27.7468 93.516 27.4941 93.899 27.0607C94.0866 26.901 94.2748 26.8212 94.4624 26.8212H94.5292C94.5558 26.9192 94.596 26.9894 94.6491 27.0322C94.7127 27.1701 94.7827 27.3771 94.86 27.6537C94.8704 27.7725 94.8752 27.9179 94.8752 28.088C94.8752 28.2582 94.8696 28.4548 94.86 28.6762C94.8568 28.7171 94.8552 28.7628 94.8552 28.8141C94.8552 28.9299 94.8607 29.0659 94.8729 29.2199C94.8938 29.4878 94.9042 29.6665 94.9042 29.7559C94.8986 29.7559 94.8672 29.7625 94.8125 29.7758L94.8149 29.7777ZM96.5725 28.9253C96.5725 28.9737 96.5508 29.1201 96.509 29.3633L96.4341 29.388C96.4341 29.388 96.4285 29.3918 96.4228 29.3918C96.3842 29.3918 96.3005 29.3586 96.1717 29.2902C96.1733 29.2826 96.1749 29.2731 96.1749 29.2617C96.1749 29.2046 96.154 29.1305 96.1114 29.0383C96.0462 28.9006 96.0091 28.8112 96.002 28.7704C96.0003 28.7628 95.9987 28.7447 95.9987 28.7181C95.9987 28.6345 96.0068 28.4662 96.022 28.2144C96.0526 27.7031 96.0969 27.2432 96.1549 26.8336C96.2071 26.7357 96.2715 26.6872 96.348 26.6872C96.4325 26.6872 96.4953 26.7775 96.5355 26.9591C96.5412 26.9913 96.5541 27.6442 96.5734 28.9157V28.9243L96.5725 28.9253ZM96.5669 25.9431C96.3182 25.8671 96.1943 25.755 96.1943 25.6057C96.1943 25.4566 96.2442 25.2969 96.3448 25.1107C96.3971 25.1049 96.5065 25.0907 96.6723 25.066C96.7504 25.2418 96.7891 25.4101 96.7891 25.5696C96.7891 25.6371 96.715 25.7616 96.5669 25.9431ZM106.019 27.6632C106.006 27.9378 105.972 28.1003 105.918 28.1508C105.832 28.1508 105.648 28.184 105.363 28.2514L104.938 28.3522H104.941C104.941 28.3579 104.867 28.3883 104.719 28.4444C104.702 28.4187 104.658 28.4063 104.589 28.4063C104.569 28.4425 104.557 28.4634 104.554 28.469C104.554 28.548 104.719 28.6696 105.052 28.8349C105.143 28.8435 105.247 28.8587 105.363 28.8816C105.558 28.9233 105.656 29.0108 105.656 29.1419C105.656 29.178 105.596 29.2512 105.474 29.3605C105.469 29.3691 105.437 29.4251 105.378 29.5287C105.267 29.5477 105.212 29.5601 105.21 29.5667C105.212 29.5667 105.213 29.5667 105.214 29.5667H105.21C105.191 29.5648 105.113 29.5553 104.973 29.5373L104.725 29.504C104.673 29.504 104.588 29.4545 104.47 29.3567C104.445 29.3339 104.376 29.2712 104.265 29.1676C104.131 29.084 104.01 28.9261 103.9 28.6953C103.791 28.4644 103.736 28.2534 103.736 28.0633C103.736 27.8276 103.752 27.6547 103.785 27.5426C104.019 26.7214 104.496 26.3119 105.213 26.3119C105.447 26.3119 105.622 26.4069 105.737 26.598C105.828 26.7433 105.919 26.9238 106.006 27.1396C106.017 27.2042 106.022 27.2983 106.022 27.4208C106.022 27.4912 106.021 27.572 106.017 27.6642L106.019 27.6632ZM108.35 27.228C108.399 27.2413 108.502 27.2907 108.658 27.3743C108.697 27.4019 108.777 27.4541 108.9 27.533L108.934 27.553C108.956 27.5663 109.028 27.6204 109.148 27.7155C109.222 27.7725 109.288 27.8675 109.346 27.9997C109.369 28.048 109.39 28.1488 109.406 28.2999C109.406 28.3057 109.414 28.3351 109.433 28.3893C109.451 28.4434 109.461 28.4776 109.461 28.4909C109.461 28.5375 109.433 28.6012 109.375 28.6838C109.317 28.7666 109.26 28.8227 109.206 28.8521C109.105 28.9091 108.911 29.0184 108.625 29.1808C108.3 29.3624 108.057 29.4527 107.897 29.4527C107.893 29.4527 107.862 29.4423 107.804 29.4204C107.746 29.3986 107.717 29.388 107.714 29.388C107.707 29.388 107.653 29.4099 107.549 29.4527C107.526 29.4527 107.494 29.4014 107.454 29.2988C107.413 29.2008 107.392 29.1267 107.392 29.0754C107.392 29.0592 107.414 28.9956 107.46 28.8844L108.142 28.6525C108.433 28.5546 108.631 28.4482 108.738 28.3313C108.738 28.3151 108.737 28.2989 108.734 28.2828C108.684 28.2125 108.525 28.0757 108.255 27.8732C107.972 27.6594 107.81 27.5292 107.766 27.4837C107.714 27.4513 107.629 27.3657 107.514 27.228C107.482 27.1709 107.465 27.0531 107.465 26.8745C107.465 26.8878 107.463 26.8944 107.459 26.8944C107.456 26.8944 107.452 26.8716 107.444 26.825C107.441 26.8088 107.44 26.7927 107.44 26.7766C107.44 26.6625 107.511 26.5561 107.653 26.4563C107.823 26.3347 108.077 26.2207 108.414 26.1133C108.751 26.0068 109.029 25.9526 109.246 25.9526C109.306 25.9526 109.344 25.9706 109.362 26.0059C109.45 26.1846 109.495 26.3147 109.495 26.3954C109.495 26.5495 109.466 26.6511 109.408 26.6996C109.358 26.7243 109.134 26.7756 108.737 26.8535C108.662 26.9106 108.62 26.9391 108.612 26.9391C108.606 26.9391 108.595 26.9334 108.573 26.9229C108.551 26.9124 108.536 26.9068 108.531 26.9068C108.451 26.9068 108.355 26.9553 108.248 27.0531C108.268 27.1234 108.303 27.1814 108.35 27.228ZM111.722 27.228C111.771 27.2413 111.874 27.2907 112.03 27.3743C112.068 27.4019 112.149 27.4541 112.272 27.533L112.305 27.553C112.329 27.5663 112.4 27.6204 112.52 27.7155C112.594 27.7725 112.661 27.8675 112.719 27.9997C112.741 28.048 112.761 28.1488 112.778 28.2999C112.778 28.3057 112.786 28.3351 112.805 28.3893C112.824 28.4434 112.833 28.4776 112.833 28.4909C112.833 28.5375 112.804 28.6012 112.746 28.6838C112.688 28.7666 112.632 28.8227 112.577 28.8521C112.477 28.9091 112.283 29.0184 111.996 29.1808C111.67 29.3624 111.428 29.4527 111.269 29.4527C111.263 29.4527 111.233 29.4423 111.175 29.4204C111.117 29.3986 111.087 29.388 111.084 29.388C111.078 29.388 111.024 29.4099 110.92 29.4527C110.896 29.4527 110.864 29.4014 110.826 29.2988C110.784 29.2008 110.763 29.1267 110.763 29.0754C110.763 29.0592 110.786 28.9956 110.832 28.8844L111.512 28.6525C111.804 28.5546 112.003 28.4482 112.11 28.3313C112.11 28.3151 112.108 28.2989 112.106 28.2828C112.055 28.2125 111.895 28.0757 111.626 27.8732C111.344 27.6594 111.181 27.5292 111.138 27.4837C111.084 27.4513 110.999 27.3657 110.885 27.228C110.852 27.1709 110.835 27.0531 110.835 26.8745C110.835 26.8878 110.834 26.8944 110.831 26.8944C110.828 26.8944 110.822 26.8716 110.816 26.825C110.813 26.8088 110.811 26.7927 110.811 26.7766C110.811 26.6625 110.881 26.5561 111.024 26.4563C111.194 26.3347 111.448 26.2207 111.785 26.1133C112.123 26.0068 112.4 25.9526 112.618 25.9526C112.677 25.9526 112.715 25.9706 112.732 26.0059C112.822 26.1846 112.867 26.3147 112.867 26.3954C112.867 26.5495 112.838 26.6511 112.78 26.6996C112.728 26.7243 112.506 26.7756 112.109 26.8535C112.033 26.9106 111.991 26.9391 111.982 26.9391C111.978 26.9391 111.965 26.9334 111.945 26.9229C111.921 26.9124 111.907 26.9068 111.903 26.9068C111.821 26.9068 111.727 26.9553 111.619 27.0531C111.64 27.1234 111.673 27.1814 111.721 27.228H111.722Z" fill="#A7A7A9"/>
</g>
<defs>
<clipPath id="clip0_1_8609">
<rect width="116" height="32" fill="white"/>
</clipPath>
</defs>
</svg>
